<svg width="207" height="33" viewBox="0 0 207 33" xmlns="http://www.w3.org/2000/svg">
    <path d="M23.216 31.112V14.48h5.076v-2.592h-5.076V1.016H20.3v30.096h2.916zM7.628 25.028c4.284-5.724 6.768-10.944 6.768-21.492H1.472V6.02h10.044c-.036 2.052-.216 3.96-.612 5.724H.5v2.52h9.756c-1.044 3.276-2.736 6.228-5.004 9.108l2.376 1.656zm45.756 6.084V14.48h5.076v-2.592h-5.076V1.016h-2.916v30.096h2.916zm-15.588-6.084c4.284-5.724 6.768-10.944 6.768-21.492H31.64V6.02h10.044c-.036 2.052-.216 3.96-.612 5.724H30.668v2.52h9.756c-1.044 3.276-2.736 6.228-5.004 9.108l2.376 1.656zm50.4 1.512v-2.448H75.272v-6.3c4.644-.576 7.74-3.672 7.74-7.812 0-4.5-3.78-7.884-9.216-7.884-5.4 0-9.18 3.384-9.18 7.884 0 4.104 3.096 7.236 7.704 7.812v6.3H59.468v2.448h28.728zm-14.4-11.196c-3.744 0-6.264-2.268-6.264-5.364 0-3.132 2.52-5.328 6.264-5.328 3.78 0 6.3 2.196 6.3 5.328 0 3.096-2.52 5.364-6.3 5.364zm40.32 1.404v-6.012h4.68v-3.96h-4.68v-5.76h-4.608v15.732h4.608zm-22.284.972c6.48-1.872 12.96-6.264 12.96-13.644V2.024h-14.04v3.672h9.432c-.216 3.384-4.392 6.66-10.08 8.172l1.728 3.852zm23.112 14.508v-3.564h-14.58v-1.872h13.572v-3.384h-13.572v-1.8h13.896V18.08H95.756v14.148h19.188zm30.996-1.116V1.016h-4.608v30.096h4.608zm-16.74-9.288c5.292 0 8.64-4.104 8.64-9.468s-3.348-9.468-8.64-9.468c-5.328 0-8.784 4.104-8.784 9.468s3.456 9.468 8.784 9.468zm0-3.852c-2.304 0-4.284-1.908-4.284-5.616 0-3.744 1.944-5.616 4.284-5.616s4.176 1.872 4.176 5.616c0 3.708-1.836 5.616-4.176 5.616zm45.252 13.14V15.164h4.68V11.24h-4.68V1.016h-4.608v30.096h4.608zm-21.204-6.876c6.264-3.528 12.204-9.216 12.204-18.288V3.212h-14.04v3.816h9.504c0 5.832-4.572 10.332-10.152 13.5l2.484 3.708zm29.772-.792c2.736-1.476 5.652-3.6 7.992-6.3l5.904 5.58 3.06-3.42-6.732-5.292c1.368-2.376 2.232-5.112 2.232-8.1V4.544h-4.356V.548h-4.464v3.996h-4.572v3.78h8.748c-.288 4.14-4.896 8.82-10.224 11.556l2.412 3.564zm23.256 7.668V1.016h-4.608v30.096h4.608z" fill="#202020" fill-rule="nonzero"/>
</svg>
